<?xml version="1.0" encoding="UTF-8" standalone="no" ?>
<!DOCTYPE svg PUBLIC "-//W3C//DTD SVG 1.1//EN" "http://www.w3.org/Graphics/SVG/1.1/DTD/svg11.dtd">
<svg xmlns="http://www.w3.org/2000/svg" xmlns:xlink="http://www.w3.org/1999/xlink" version="1.1" width="1080" height="1080" viewBox="0 0 1080 1080" xml:space="preserve">
<desc>Created with Fabric.js 5.2.4</desc>
<defs>
</defs>
<rect x="0" y="0" width="100%" height="100%" fill="transparent"></rect>
<g transform="matrix(1 0 0 1 540 540)" id="8ffbcdfa-b2cf-4044-980c-f14eec0f95a1"  >
<rect style="stroke: none; stroke-width: 1; stroke-dasharray: none; stroke-linecap: butt; stroke-dashoffset: 0; stroke-linejoin: miter; stroke-miterlimit: 4; fill: rgb(255,255,255); fill-rule: nonzero; opacity: 1; visibility: hidden;" vector-effect="non-scaling-stroke"  x="-540" y="-540" rx="0" ry="0" width="1080" height="1080" />
</g>
<g transform="matrix(1 0 0 1 540 540)" id="6a42e593-5783-4dea-957e-fd88edd606e6"  >
</g>
<g transform="matrix(0 0 0 0 0 0)"  >
<g style=""   >
</g>
</g>
<g transform="matrix(0 0 0 0 0 0)"  >
<g style=""   >
</g>
</g>
<g transform="matrix(0 0 0 0 0 0)"  >
<g style=""   >
</g>
</g>
<g transform="matrix(0 0 0 0 0 0)"  >
<g style=""   >
</g>
</g>
<g transform="matrix(0 0 0 0 0 0)"  >
<g style=""   >
</g>
</g>
<g transform="matrix(0 0 0 0 0 0)"  >
<g style=""   >
</g>
</g>
<g transform="matrix(0 0 0 0 0 0)"  >
<g style=""   >
</g>
</g>
<g transform="matrix(0 0 0 0 0 0)"  >
<g style=""   >
</g>
</g>
<g transform="matrix(NaN NaN NaN NaN 0 0)"  >
<g style=""   >
</g>
</g>
<g transform="matrix(16.88 0 0 16.88 767.81 526.5)" id="SVGRepo_iconCarrier"  >
<path style="stroke: none; stroke-width: 1; stroke-dasharray: none; stroke-linecap: butt; stroke-dashoffset: 0; stroke-linejoin: miter; stroke-miterlimit: 4; fill: rgb(255,255,255); fill-rule: nonzero; opacity: 1;" vector-effect="non-scaling-stroke"  transform=" translate(-45.5, -31.2)" d="M 45.5 40 C 51.6 40 56.5 35.1 56.5 29 C 56.5 27.4 56.1 25.8 55.5 24.4 C 52.7 23.099999999999998 49.2 22.4 45.5 22.4 C 41.8 22.4 38.3 23.2 35.5 24.4 C 34.9 25.799999999999997 34.5 27.299999999999997 34.5 29 C 34.5 35.1 39.4 40 45.5 40" stroke-linecap="round" />
</g>
<g transform="matrix(16.88 0 0 16.88 838.69 437.06)" id="SVGRepo_iconCarrier"  >
<path style="stroke: none; stroke-width: 1; stroke-dasharray: none; stroke-linecap: butt; stroke-dashoffset: 0; stroke-linejoin: miter; stroke-miterlimit: 4; fill: rgb(102,78,39); fill-rule: nonzero; opacity: 1;" vector-effect="non-scaling-stroke"  transform=" translate(-49.7, -25.9)" d="M 46 22.4 C 45.5 23.099999999999998 45.2 24 45.2 24.9 C 45.2 27.4 47.2 29.4 49.7 29.4 C 52.2 29.4 54.2 27.4 54.2 24.9 C 54.2 24.5 54.1 24.2 54.1 23.9 C 51.7 23 48.9 22.4 46 22.4" stroke-linecap="round" />
</g>
<g transform="matrix(16.88 0 0 16.88 312.19 526.5)" id="SVGRepo_iconCarrier"  >
<path style="stroke: none; stroke-width: 1; stroke-dasharray: none; stroke-linecap: butt; stroke-dashoffset: 0; stroke-linejoin: miter; stroke-miterlimit: 4; fill: rgb(255,255,255); fill-rule: nonzero; opacity: 1;" vector-effect="non-scaling-stroke"  transform=" translate(-18.5, -31.2)" d="M 18.5 40 C 24.6 40 29.5 35.1 29.5 29 C 29.5 27.4 29.1 25.8 28.5 24.4 C 25.7 23.099999999999998 22.2 22.4 18.5 22.4 C 14.8 22.4 11.3 23.2 8.5 24.4 C 7.9 25.799999999999997 7.5 27.299999999999997 7.5 29 C 7.5 35.1 12.4 40 18.5 40" stroke-linecap="round" />
</g>
<g transform="matrix(16.88 0 0 16.88 383.06 437.06)" id="SVGRepo_iconCarrier"  >
<path style="stroke: none; stroke-width: 1; stroke-dasharray: none; stroke-linecap: butt; stroke-dashoffset: 0; stroke-linejoin: miter; stroke-miterlimit: 4; fill: rgb(102,78,39); fill-rule: nonzero; opacity: 1;" vector-effect="non-scaling-stroke"  transform=" translate(-22.7, -25.9)" d="M 19 22.4 C 18.5 23.099999999999998 18.2 24 18.2 24.9 C 18.2 27.4 20.2 29.4 22.7 29.4 C 25.2 29.4 27.2 27.4 27.2 24.9 C 27.2 24.5 27.099999999999998 24.2 27.099999999999998 23.9 C 24.7 23 21.9 22.4 19 22.4" stroke-linecap="round" />
</g>
</svg>