<?xml version="1.0" encoding="UTF-8" standalone="no" ?>
<!DOCTYPE svg PUBLIC "-//W3C//DTD SVG 1.1//EN" "http://www.w3.org/Graphics/SVG/1.1/DTD/svg11.dtd">
<svg xmlns="http://www.w3.org/2000/svg" xmlns:xlink="http://www.w3.org/1999/xlink" version="1.1" width="1080" height="1080" viewBox="0 0 1080 1080" xml:space="preserve">
<desc>Created with Fabric.js 5.2.4</desc>
<defs>
</defs>
<rect x="0" y="0" width="100%" height="100%" fill="transparent"></rect>
<g transform="matrix(1 0 0 1 540 540)" id="6a42e593-5783-4dea-957e-fd88edd606e6"  >
</g>
<g transform="matrix(1 0 0 1 540 540)" id="8ffbcdfa-b2cf-4044-980c-f14eec0f95a1"  >
<rect style="stroke: none; stroke-width: 1; stroke-dasharray: none; stroke-linecap: butt; stroke-dashoffset: 0; stroke-linejoin: miter; stroke-miterlimit: 4; fill: rgb(255,255,255); fill-rule: nonzero; opacity: 1; visibility: hidden;" vector-effect="non-scaling-stroke"  x="-540" y="-540" rx="0" ry="0" width="1080" height="1080" />
</g>
<g transform="matrix(0 0 0 0 0 0)"  >
<g style=""   >
</g>
</g>
<g transform="matrix(0 0 0 0 0 0)"  >
<g style=""   >
</g>
</g>
<g transform="matrix(0 0 0 0 0 0)"  >
<g style=""   >
</g>
</g>
<g transform="matrix(0 0 0 0 0 0)"  >
<g style=""   >
</g>
</g>
<g transform="matrix(0 0 0 0 0 0)"  >
<g style=""   >
</g>
</g>
<g transform="matrix(NaN NaN NaN NaN 0 0)"  >
<g style=""   >
</g>
</g>
<g transform="matrix(30 0 0 57.25 540 779.54)" id="SVGRepo_iconCarrier"  >
<path style="stroke: none; stroke-width: 1; stroke-dasharray: none; stroke-linecap: butt; stroke-dashoffset: 0; stroke-linejoin: miter; stroke-miterlimit: 4; fill: rgb(102,69,0); fill-rule: nonzero; opacity: 1;" vector-effect="non-scaling-stroke"  transform=" translate(-18, -17.97)" d="M 22.886 27.485 C 21.311 27.485 20.493 26.688 19.837 26.048 C 19.277 25.502999999999997 18.872 25.108999999999998 18.009999999999998 25.108999999999998 C 17.147 25.108999999999998 16.741999999999997 25.503999999999998 16.183 26.048 C 15.527 26.688 14.709 27.485 13.135 27.485 C 11.561 27.485 10.745 26.688 10.089 26.048 C 9.532 25.503999999999998 9.129000000000001 25.110999999999997 8.274000000000001 25.108999999999998 C 7.663000000000001 25.110999999999997 7.304000000000001 25.302 6.954000000000001 25.589 C 6.579424193962674 25.880306368899532 6.040921710685793 25.81996165200653 5.740114744422953 25.452971728333292 C 5.439307778160113 25.08598180466005 5.485836863448755 24.546110103628717 5.845000000000001 24.235999999999997 C 6.515149004003795 23.664017533362983 7.368964511230744 23.352667762120557 8.249999999999998 23.358999999999998 L 8.299 23.358999999999998 C 9.850999999999999 23.371 10.66 24.159999999999997 11.311 24.796 C 11.87 25.342 12.274 25.735 13.135 25.735 C 13.998 25.735 14.403 25.34 14.963 24.796 C 15.619 24.156 16.436999999999998 23.358999999999998 18.011 23.358999999999998 C 19.585 23.358999999999998 20.403 24.154999999999998 21.058999999999997 24.796 C 21.619999999999997 25.341 22.023999999999997 25.735 22.886999999999997 25.735 C 23.749999999999996 25.735 24.154999999999998 25.34 24.714999999999996 24.796 C 25.370999999999995 24.155 26.188999999999997 23.358999999999998 27.763999999999996 23.358999999999998 C 28.676999999999996 23.358999999999998 29.433999999999997 23.622 30.146999999999995 24.186999999999998 C 30.399300414566305 24.378736970235106 30.528216590398117 24.69190198301808 30.484019949932726 25.005693668562557 C 30.439823309467336 25.319485354107034 30.229421733697336 25.58485845473323 29.933976263993074 25.69944702037789 C 29.638530794288815 25.814035586022545 29.30421919717342 25.759929563653362 29.059999999999995 25.557999999999996 C 28.765999999999995 25.324999999999996 28.405999999999995 25.108999999999995 27.764999999999993 25.108999999999995 C 26.901999999999994 25.108999999999995 26.496999999999993 25.503999999999994 25.936999999999994 26.047999999999995 C 25.277999999999995 26.688999999999993 24.460999999999995 27.484999999999996 22.885999999999996 27.484999999999996 z M 11.395 18.875 C 9.318218653784927 18.872795347026653 7.635204652973345 17.18978134621507 7.632999999999999 15.113 C 7.635203582062437 13.036056245206623 9.318056904233291 11.35275559360404 11.395 11.35 C 12.674 11.35 13.713999999999999 12.39 13.713999999999999 13.669 C 13.713999999999999 14.948 12.674 15.988 11.395 15.988 C 10.911750843898055 15.988 10.52 15.596249156101944 10.52 15.113 C 10.52 14.629750843898055 10.911750843898055 14.238 11.395 14.238 C 11.696164931074216 14.220137016584337 11.931250925938627 13.970694219178037 11.931250925938627 13.669 C 11.931250925938627 13.367305780821962 11.696164931074216 13.117862983415662 11.395 13.1 C 10.284098322496167 13.101653403746793 9.384101402743207 14.002097638072195 9.383 15.113 C 9.383 16.222 10.286 17.125 11.395 17.125 C 13.301 17.125 14.850999999999999 15.575 14.850999999999999 13.669 C 14.850999999999999 11.763000000000002 13.300999999999998 10.213000000000001 11.395 10.213000000000001 C 8.690337670554673 10.21630705475849 6.498755026461973 12.40833705191183 6.495999999999999 15.113 C 6.4959999999999996 15.596249156101946 6.104249156101944 15.988000000000001 5.6209999999999996 15.988000000000001 C 5.137750843898055 15.988000000000001 4.7459999999999996 15.596249156101946 4.7459999999999996 15.113000000000001 C 4.749857190318567 11.442295637421342 7.724296259002483 8.467409217396064 11.394999999999992 8.463000000000001 C 14.266 8.463000000000001 16.601 10.798000000000002 16.601 13.669 C 16.601 16.54 14.267 18.875 11.395 18.875 z M 24.604 18.875 C 21.733 18.875 19.398 16.54 19.398 13.669 C 19.398 10.798000000000002 21.733 8.463000000000001 24.604 8.463000000000001 C 26.679 8.463000000000001 28.366999999999997 10.151000000000002 28.366999999999997 12.225000000000001 C 28.366999999999997 14.299000000000001 26.679 15.988000000000001 24.604 15.988000000000001 C 23.326 15.988000000000001 22.285999999999998 14.948 22.285999999999998 13.669 C 22.285999999999998 12.39 23.325999999999997 11.350000000000001 24.604 11.350000000000001 C 25.087249156101944 11.350000000000001 25.479 11.741750843898057 25.479 12.225000000000001 C 25.479 12.708249156101946 25.087249156101944 13.100000000000001 24.604 13.100000000000001 C 24.302835068925784 13.117862983415664 24.06774907406137 13.367305780821964 24.06774907406137 13.669 C 24.06774907406137 13.97069421917804 24.302835068925784 14.220137016584339 24.604 14.238000000000001 C 25.71506414192832 14.236347857273524 26.61534785727352 13.336064141928322 26.616999999999997 12.225000000000001 C 26.615346596253204 11.11409832249617 25.714902361927802 10.21410140274321 24.604 10.213000000000001 C 22.69621768357114 10.21520425676002 21.150204256760016 11.76121768357114 21.148 13.669 C 21.15020425676002 15.576782316428861 22.69621768357114 17.122795743239983 24.604 17.125 C 27.308272432126657 17.121694039777466 29.499694039777467 14.930272432126655 29.503 12.225999999999999 C 29.503 11.742750843898055 29.894750843898056 11.350999999999999 30.378 11.350999999999999 C 30.861249156101945 11.350999999999999 31.253 11.742750843898055 31.253 12.225999999999999 C 31.254 15.892 28.27 18.875 24.604 18.875 z" stroke-linecap="round" />
</g>
</svg>