<?xml version="1.0" encoding="UTF-8" standalone="no" ?>
<!DOCTYPE svg PUBLIC "-//W3C//DTD SVG 1.1//EN" "http://www.w3.org/Graphics/SVG/1.1/DTD/svg11.dtd">
<svg xmlns="http://www.w3.org/2000/svg" xmlns:xlink="http://www.w3.org/1999/xlink" version="1.1" width="1080" height="1080" viewBox="0 0 1080 1080" xml:space="preserve">
<desc>Created with Fabric.js 5.2.4</desc>
<defs>
</defs>
<rect x="0" y="0" width="100%" height="100%" fill="transparent"></rect>
<g transform="matrix(1 0 0 1 540 540)" id="8ffbcdfa-b2cf-4044-980c-f14eec0f95a1"  >
<rect style="stroke: none; stroke-width: 1; stroke-dasharray: none; stroke-linecap: butt; stroke-dashoffset: 0; stroke-linejoin: miter; stroke-miterlimit: 4; fill: rgb(255,255,255); fill-rule: nonzero; opacity: 1; visibility: hidden;" vector-effect="non-scaling-stroke"  x="-540" y="-540" rx="0" ry="0" width="1080" height="1080" />
</g>
<g transform="matrix(1 0 0 1 540 540)" id="6a42e593-5783-4dea-957e-fd88edd606e6"  >
</g>
<g transform="matrix(0 0 0 0 0 0)"  >
<g style=""   >
</g>
</g>
<g transform="matrix(0 0 0 0 0 0)"  >
<g style=""   >
</g>
</g>
<g transform="matrix(0 0 0 0 0 0)"  >
<g style=""   >
</g>
</g>
<g transform="matrix(0 0 0 0 0 0)"  >
<g style=""   >
</g>
</g>
<g transform="matrix(0 0 0 0 0 0)"  >
<g style=""   >
</g>
</g>
<g transform="matrix(0 0 0 0 0 0)"  >
<g style=""   >
</g>
</g>
<g transform="matrix(0 0 0 0 0 0)"  >
<g style=""   >
</g>
</g>
<g transform="matrix(0 0 0 0 0 0)"  >
<g style=""   >
</g>
</g>
<g transform="matrix(16.88 0 0 16.88 740.34 235.67)"  >
<path style="stroke: none; stroke-width: 1; stroke-dasharray: none; stroke-linecap: butt; stroke-dashoffset: 0; stroke-linejoin: miter; stroke-miterlimit: 4; fill: rgb(145,117,36); fill-rule: nonzero; opacity: 1;" vector-effect="non-scaling-stroke"  transform=" translate(-43.87, -13.96)" d="M 38.4 11.2 C 41.6 13.899999999999999 45.9 15.1 50.099999999999994 14.299999999999999 C 50.699999999999996 14.2 51.199999999999996 16.299999999999997 50.49999999999999 16.5 C 45.699999999999996 17.4 40.69999999999999 16 36.99999999999999 12.9 C 36.49999999999999 12.4 37.99999999999999 10.9 38.39999999999999 11.200000000000001" stroke-linecap="round" />
</g>
<g transform="matrix(16.88 0 0 16.88 339.99 233.86)"  >
<path style="stroke: none; stroke-width: 1; stroke-dasharray: none; stroke-linecap: butt; stroke-dashoffset: 0; stroke-linejoin: miter; stroke-miterlimit: 4; fill: rgb(145,117,36); fill-rule: nonzero; opacity: 1;" vector-effect="non-scaling-stroke"  transform=" translate(-20.15, -13.86)" d="M 13.9 14.2 C 18.1 14.899999999999999 22.4 13.799999999999999 25.6 11.1 C 26 10.7 27.6 12.299999999999999 27 12.799999999999999 C 23.3 16 18.3 17.299999999999997 13.5 16.4 C 12.8 16.2 13.3 14.099999999999998 13.9 14.2" stroke-linecap="round" />
</g>
<g transform="matrix(16.88 0 0 16.88 737.75 422.37)"  >
<path style="stroke: none; stroke-width: 1; stroke-dasharray: none; stroke-linecap: butt; stroke-dashoffset: 0; stroke-linejoin: miter; stroke-miterlimit: 4; fill: rgb(102,78,39); fill-rule: nonzero; opacity: 1;" vector-effect="non-scaling-stroke"  transform=" translate(-43.72, -25.03)" d="M 51.7 21.1 C 52.300000000000004 21.400000000000002 52 22.1 51.5 22.200000000000003 C 48.8 22.6 46 23.1 43.2 24.6 C 47.2 25.3 50.400000000000006 27.3 52.2 29.400000000000002 C 52.6 29.900000000000002 52.1 30.500000000000004 51.7 30.400000000000002 C 46.900000000000006 28.700000000000003 42 27.700000000000003 35.900000000000006 28.400000000000002 C 35.400000000000006 28.400000000000002 35.00000000000001 28.200000000000003 35.10000000000001 27.700000000000003 C 36.70000000000001 20.400000000000002 46.00000000000001 17.700000000000003 51.70000000000001 21.1" stroke-linecap="round" />
</g>
<g transform="matrix(16.88 0 0 16.88 342.34 422.37)"  >
<path style="stroke: none; stroke-width: 1; stroke-dasharray: none; stroke-linecap: butt; stroke-dashoffset: 0; stroke-linejoin: miter; stroke-miterlimit: 4; fill: rgb(102,78,39); fill-rule: nonzero; opacity: 1;" vector-effect="non-scaling-stroke"  transform=" translate(-20.28, -25.03)" d="M 12.3 21.1 C 11.700000000000001 21.400000000000002 12 22.1 12.5 22.200000000000003 C 15.2 22.6 18 23.1 20.8 24.6 C 16.8 25.3 13.600000000000001 27.3 11.8 29.400000000000002 C 11.4 29.900000000000002 11.9 30.500000000000004 12.3 30.400000000000002 C 17.1 28.700000000000003 22 27.700000000000003 28.1 28.400000000000002 C 28.6 28.400000000000002 29 28.200000000000003 28.900000000000002 27.700000000000003 C 27.3 20.400000000000002 18 17.700000000000003 12.3 21.1" stroke-linecap="round" />
</g>
</svg>