<?xml version="1.0" encoding="iso-8859-1"?>
<!-- Uploaded to: SVG Repo, www.svgrepo.com, Generator: SVG Repo Mixer Tools -->
<!DOCTYPE svg PUBLIC "-//W3C//DTD SVG 1.1//EN" "http://www.w3.org/Graphics/SVG/1.1/DTD/svg11.dtd">
<svg fill="#000000" version="1.1" id="Capa_1" xmlns="http://www.w3.org/2000/svg" xmlns:xlink="http://www.w3.org/1999/xlink" 
	 width="800px" height="800px" viewBox="0 0 429.434 429.434"
	 xml:space="preserve">
<g>
	<g>
		<path d="M341.452,109.825l-2.989-0.042c-26.562,0-51.135,10.487-73.152,31.28c-9.185,8.666-23.066,21.76-32.528,24.984
			c-6.548,2.216-12.629,3.362-18.039,3.4c-5.462-0.038-11.554-1.176-18.078-3.4c-9.525-3.232-23.427-16.368-32.667-25.096
			c-21.911-20.681-46.488-31.168-73.102-31.168l-2.998,0.05c-29.619,0.932-52.397,9.748-67.679,26.218
			C6.168,151.22-0.977,173.004,0.107,197.388C1.727,234.147,14.52,319.65,98.133,319.65c61.643-0.024,85.342-64.436,93.994-102.847
			c0.257-1.187,0.479-2.465,0.613-3.677c0.234-0.95,2.841-5.673,7.544-8.578c4.39-2.695,9.253-4.083,14.383-4.13
			c5.206,0.046,10.062,1.435,14.444,4.13c4.729,2.914,7.33,7.628,7.534,8.428c0.169,1.368,0.369,2.657,0.638,3.841
			c8.647,38.397,32.319,102.809,93.941,102.833c83.672,0,96.476-85.503,98.103-122.263c1.077-24.392-6.071-46.174-20.134-61.336
			C393.913,119.573,371.146,110.749,341.452,109.825z M172.735,212.452c-7.348,32.596-26.81,87.29-74.554,87.314h-0.048
			c-66.413,0-76.796-72.218-78.181-103.264c-0.587-13.481,1.499-32.562,14.846-46.937c11.539-12.427,29.604-19.116,53.657-19.871
			l2.519-0.038c34.652,0.014,59.648,23.175,74.516,42.609C171.85,180.557,175.012,202.287,172.735,212.452z M409.454,196.502
			c-1.358,31.046-11.674,103.264-78.165,103.264h-0.064c-47.768-0.024-67.208-54.71-74.538-87.314
			c-2.284-10.157,0.866-31.887,7.237-40.195c14.855-19.426,39.858-42.595,74.511-42.601l2.46,0.03
			c24.117,0.763,42.194,7.444,53.716,19.871C407.967,163.97,410.051,183.037,409.454,196.502z"/>
	</g>
</g>
</svg>