<?xml version="1.0" encoding="UTF-8" standalone="no" ?>
<!DOCTYPE svg PUBLIC "-//W3C//DTD SVG 1.1//EN" "http://www.w3.org/Graphics/SVG/1.1/DTD/svg11.dtd">
<svg xmlns="http://www.w3.org/2000/svg" xmlns:xlink="http://www.w3.org/1999/xlink" version="1.1" width="1080" height="1080" viewBox="0 0 1080 1080" xml:space="preserve">
<desc>Created with Fabric.js 5.2.4</desc>
<defs>
</defs>
<rect x="0" y="0" width="100%" height="100%" fill="transparent"></rect>
<g transform="matrix(1 0 0 1 540 540)" id="6a42e593-5783-4dea-957e-fd88edd606e6"  >
</g>
<g transform="matrix(1 0 0 1 540 540)" id="8ffbcdfa-b2cf-4044-980c-f14eec0f95a1"  >
<rect style="stroke: none; stroke-width: 1; stroke-dasharray: none; stroke-linecap: butt; stroke-dashoffset: 0; stroke-linejoin: miter; stroke-miterlimit: 4; fill: rgb(255,255,255); fill-rule: nonzero; opacity: 1; visibility: hidden;" vector-effect="non-scaling-stroke"  x="-540" y="-540" rx="0" ry="0" width="1080" height="1080" />
</g>
<g transform="matrix(0 0 0 0 0 0)"  >
<g style=""   >
</g>
</g>
<g transform="matrix(0 0 0 0 0 0)"  >
<g style=""   >
</g>
</g>
<g transform="matrix(0 0 0 0 0 0)"  >
<g style=""   >
</g>
</g>
<g transform="matrix(0 0 0 0 0 0)"  >
<g style=""   >
</g>
</g>
<g transform="matrix(0 0 0 0 0 0)"  >
<g style=""   >
</g>
</g>
<g transform="matrix(0 0 0 0 0 0)"  >
<g style=""   >
</g>
</g>
<g transform="matrix(0 0 0 0 0 0)"  >
<g style=""   >
</g>
</g>
<g transform="matrix(30 0 0 66.29 499.53 302.83)"  >
<path style="stroke: none; stroke-width: 1; stroke-dasharray: none; stroke-linecap: butt; stroke-dashoffset: 0; stroke-linejoin: miter; stroke-miterlimit: 4; fill: rgb(101,71,27); fill-rule: nonzero; opacity: 1;" vector-effect="non-scaling-stroke"  transform=" translate(-17, -18.21)" d="M 23.109 23.424 C 20.346000000000004 22.756999999999998 14.236000000000002 23.364 11.947000000000001 27.829 C 11.886166629364988 27.94518576536061 11.890820790616127 28.08478329356693 11.959257704376375 28.196659206480387 C 12.027694618136623 28.308535119393845 12.149857829058094 28.37624982234395 12.281 28.375 C 12.369011966017725 28.374941073542708 12.454244760859904 28.34417238826773 12.522 28.288 C 15.606 25.708 19.958 25.708 22.558 25.708 C 24.193 25.708 25.094 25.708 25.094 25 C 25.094 24.292 24.389000000000003 23.732 23.109 23.424 z M 10.5 13 C 11.880711874576983 13 13 11.880711874576983 13 10.5 C 13 9.248 12.077 8.22 10.876 8.038 C 10.105864745968214 8.125403191064366 9.363290882551857 8.376337242246388 8.698 8.774000000000001 C 8.250636126476085 9.23725959978672 8.000417924230563 9.85599400820473 8 10.5 C 8 11.880711874576983 9.119288125423017 13 10.5 13 z M 23.5 13 C 24.880711874576985 13 26 11.880711874576983 26 10.5 C 26 9.248 25.076999999999998 8.22 23.876 8.038 C 23.10618241435788 8.125421271037833 22.36393853201762 8.376359028227743 21.699 8.774000000000003 C 21.25100237921497 9.236926512440649 21.000372216822974 9.855792979234046 21 10.5 C 21 11.880711874576983 22.119288125423015 13 23.5 13 z" stroke-linecap="round" />
</g>
</svg>