<?xml version="1.0" encoding="UTF-8" standalone="no" ?>
<!DOCTYPE svg PUBLIC "-//W3C//DTD SVG 1.1//EN" "http://www.w3.org/Graphics/SVG/1.1/DTD/svg11.dtd">
<svg xmlns="http://www.w3.org/2000/svg" xmlns:xlink="http://www.w3.org/1999/xlink" version="1.1" width="1080" height="1080" viewBox="0 0 1080 1080" xml:space="preserve">
<desc>Created with Fabric.js 5.2.4</desc>
<defs>
</defs>
<rect x="0" y="0" width="100%" height="100%" fill="transparent"></rect>
<g transform="matrix(1 0 0 1 540 540)" id="6a42e593-5783-4dea-957e-fd88edd606e6"  >
</g>
<g transform="matrix(1 0 0 1 540 540)" id="8ffbcdfa-b2cf-4044-980c-f14eec0f95a1"  >
<rect style="stroke: none; stroke-width: 1; stroke-dasharray: none; stroke-linecap: butt; stroke-dashoffset: 0; stroke-linejoin: miter; stroke-miterlimit: 4; fill: rgb(255,255,255); fill-rule: nonzero; opacity: 1; visibility: hidden;" vector-effect="non-scaling-stroke"  x="-540" y="-540" rx="0" ry="0" width="1080" height="1080" />
</g>
<g transform="matrix(0 0 0 0 0 0)"  >
<g style=""   >
</g>
</g>
<g transform="matrix(0 0 0 0 0 0)"  >
<g style=""   >
</g>
</g>
<g transform="matrix(0 0 0 0 0 0)"  >
<g style=""   >
</g>
</g>
<g transform="matrix(0 0 0 0 0 0)"  >
<g style=""   >
</g>
</g>
<g transform="matrix(0 0 0 0 0 0)"  >
<g style=""   >
</g>
</g>
<g transform="matrix(0 0 0 0 0 0)"  >
<g style=""   >
</g>
</g>
<g transform="matrix(0 0 0 0 0 0)"  >
<g style=""   >
</g>
</g>
<g transform="matrix(NaN NaN NaN NaN 0 0)"  >
<g style=""   >
</g>
</g>
<g transform="matrix(16.88 0 0 16.88 540.01 725.61)" id="SVGRepo_iconCarrier"  >
<path style="stroke: none; stroke-width: 1; stroke-dasharray: none; stroke-linecap: butt; stroke-dashoffset: 0; stroke-linejoin: miter; stroke-miterlimit: 4; fill: rgb(102,78,39); fill-rule: nonzero; opacity: 1;" vector-effect="non-scaling-stroke"  transform=" translate(-32, -43)" d="M 32 32 C 23.2 31.9 16.1 37.4 16 44.3 C 16 48.099999999999994 17.3 53.8 21.6 53.8 C 24.700000000000003 53.8 28.1 50 32 50 C 35.9 50 39.1 54 42.2 54 C 46 54 48 48.3 48 44.5 C 48.1 37.7 40.8 32.1 32 32" stroke-linecap="round" />
</g>
<g transform="matrix(16.88 0 0 16.88 541.69 726.47)" id="SVGRepo_iconCarrier"  >
<path style="stroke: none; stroke-width: 1; stroke-dasharray: none; stroke-linecap: butt; stroke-dashoffset: 0; stroke-linejoin: miter; stroke-miterlimit: 4; fill: rgb(76,53,38); fill-rule: nonzero; opacity: 1;" vector-effect="non-scaling-stroke"  transform=" translate(-32.1, -43.05)" d="M 39 43.2 C 39 40.1 36 38.300000000000004 34.2 38.300000000000004 C 33.5 38.300000000000004 32.5 38.900000000000006 32.900000000000006 40.400000000000006 C 33.10000000000001 41.2 34.300000000000004 42.10000000000001 34.300000000000004 43.400000000000006 C 34.300000000000004 45.900000000000006 29.900000000000006 45.900000000000006 29.900000000000006 43.400000000000006 C 29.900000000000006 42.10000000000001 31.100000000000005 41.2 31.300000000000004 40.400000000000006 C 31.700000000000003 38.900000000000006 30.600000000000005 38.300000000000004 30.000000000000004 38.300000000000004 C 28.200000000000003 38.300000000000004 25.200000000000003 40.2 25.200000000000003 43.2 C 25.200000000000003 45.1 26.200000000000003 46.6 27.700000000000003 47.800000000000004 L 36.7 47.800000000000004 C 38 46.6 39 45.1 39 43.2" stroke-linecap="round" />
</g>
<g transform="matrix(16.88 0 0 16.88 540 818.44)" id="SVGRepo_iconCarrier"  >
<path style="stroke: none; stroke-width: 1; stroke-dasharray: none; stroke-linecap: butt; stroke-dashoffset: 0; stroke-linejoin: miter; stroke-miterlimit: 4; fill: rgb(255,113,127); fill-rule: nonzero; opacity: 1;" vector-effect="non-scaling-stroke"  transform=" translate(-32, -48.5)" d="M 32 46 C 26 46 24 51 24 51 C 24 51 28 48 32 48 C 36 48 40 51 40 51 C 40 51 38 46 32 46" stroke-linecap="round" />
</g>
<g transform="matrix(16.88 0 0 16.88 539.28 607.5)" id="SVGRepo_iconCarrier"  >
<path style="stroke: none; stroke-width: 1; stroke-dasharray: none; stroke-linecap: butt; stroke-dashoffset: 0; stroke-linejoin: miter; stroke-miterlimit: 4; fill: rgb(255,255,255); fill-rule: nonzero; opacity: 1;" vector-effect="non-scaling-stroke"  transform=" translate(-31.96, -36)" d="M 41.8 37 C 39.3 35.1 36.099999999999994 34 31.999999999999996 34 C 27.9 34 24.699999999999996 35.2 22.199999999999996 37 C 21.799999999999997 37.3 21.799999999999997 38 22.499999999999996 38 L 41.3 38 C 42.099999999999994 38 42.099999999999994 37.3 41.8 37" stroke-linecap="round" />
</g>
</svg>